<svg width="1600" height="2000" viewBox="0 0 1600 2000" fill="none" xmlns="http://www.w3.org/2000/svg">
  <rect width="1600" height="2000" fill="#0B1220"/>
  <rect width="1600" height="2000" fill="url(#paint0_radial)"/>
  <rect width="1600" height="2000" fill="url(#paint1_radial)"/>
  <path d="M-100 300C250 120 620 160 860 320C1120 500 1360 460 1720 280V2000H-100V300Z" fill="url(#paint2_linear)" opacity="0.6"/>
  <path d="M-200 900C120 700 520 760 820 980C1080 1160 1380 1120 1820 880V2000H-200V900Z" fill="url(#paint3_linear)" opacity="0.55"/>
  <path d="M-160 1350C180 1200 580 1250 880 1420C1160 1580 1440 1540 1800 1320V2000H-160V1350Z" fill="url(#paint4_linear)" opacity="0.5"/>
  <defs>
    <radialGradient id="paint0_radial" cx="0" cy="0" r="1" gradientUnits="userSpaceOnUse" gradientTransform="translate(300 260) rotate(55) scale(520 680)">
      <stop stop-color="#1F2A44"/>
      <stop offset="1" stop-color="#0B1220" stop-opacity="0"/>
    </radialGradient>
    <radialGradient id="paint1_radial" cx="0" cy="0" r="1" gradientUnits="userSpaceOnUse" gradientTransform="translate(1200 300) rotate(120) scale(520 760)">
      <stop stop-color="#2B1D3F"/>
      <stop offset="1" stop-color="#0B1220" stop-opacity="0"/>
    </radialGradient>
    <linearGradient id="paint2_linear" x1="-100" y1="300" x2="1720" y2="2000" gradientUnits="userSpaceOnUse">
      <stop stop-color="#12263A"/>
      <stop offset="1" stop-color="#1D3B4D"/>
    </linearGradient>
    <linearGradient id="paint3_linear" x1="-200" y1="900" x2="1820" y2="2000" gradientUnits="userSpaceOnUse">
      <stop stop-color="#102C2C"/>
      <stop offset="1" stop-color="#0E2A38"/>
    </linearGradient>
    <linearGradient id="paint4_linear" x1="-160" y1="1350" x2="1800" y2="2000" gradientUnits="userSpaceOnUse">
      <stop stop-color="#1E1A2C"/>
      <stop offset="1" stop-color="#18202F"/>
    </linearGradient>
  </defs>
</svg>
